<svg width="15" height="15" viewBox="0 0 15 15" fill="none" xmlns="http://www.w3.org/2000/svg">
<path d="M13.6077 0.929932H2.03802C1.42628 0.929932 0.929993 1.42622 0.929993 2.03796V13.6076C0.929993 14.2194 1.42628 14.7156 2.03802 14.7156H13.6077C14.2194 14.7156 14.7157 14.2194 14.7157 13.6076V2.03796C14.7157 1.42622 14.2194 0.929932 13.6077 0.929932ZM13.6077 13.6128C5.89113 13.6111 2.03285 13.6093 2.03285 13.6076C2.03457 5.89106 2.0363 2.03279 2.03802 2.03279C9.75457 2.03451 13.6128 2.03623 13.6128 2.03796C13.6111 9.75451 13.6094 13.6128 13.6077 13.6128ZM2.97372 6.09785H5.01918V12.6771H2.97372V6.09785ZM3.99731 5.19833C4.65041 5.19833 5.18288 4.66758 5.18288 4.01276C5.18288 3.85707 5.15222 3.7029 5.09264 3.55906C5.03306 3.41522 4.94573 3.28453 4.83564 3.17444C4.72555 3.06435 4.59485 2.97702 4.45101 2.91744C4.30717 2.85786 4.153 2.82719 3.99731 2.82719C3.84162 2.82719 3.68745 2.85786 3.54361 2.91744C3.39977 2.97702 3.26908 3.06435 3.15899 3.17444C3.0489 3.28453 2.96157 3.41522 2.90199 3.55906C2.84241 3.7029 2.81174 3.85707 2.81174 4.01276C2.81002 4.66758 3.34077 5.19833 3.99731 5.19833ZM8.34498 9.42193C8.34498 8.56377 8.50869 7.73318 9.57191 7.73318C10.6196 7.73318 10.6351 8.71369 10.6351 9.47707V12.6771H12.6789V9.06867C12.6789 7.29721 12.2963 5.93414 10.2267 5.93414C9.23244 5.93414 8.56555 6.4804 8.29156 6.99737H8.26399V6.09785H6.30125V12.6771H8.34498V9.42193Z" fill="white"/>
</svg>
