<svg width="35" height="35" viewBox="0 0 35 35" fill="none" xmlns="http://www.w3.org/2000/svg">
<circle cx="17.5" cy="17.5" r="17.5" fill="#85C224"/>
<path d="M15.2157 11.5235C15.0264 11.7128 14.9201 11.9696 14.9201 12.2373C14.9201 12.505 15.0264 12.7618 15.2157 12.9511L20.2133 17.9487L15.2157 22.9463C15.0318 23.1367 14.93 23.3917 14.9323 23.6565C14.9346 23.9212 15.0408 24.1744 15.228 24.3616C15.4152 24.5488 15.6684 24.655 15.9331 24.6573C16.1978 24.6596 16.4529 24.5578 16.6433 24.3739L22.3547 18.6625C22.5439 18.4732 22.6503 18.2164 22.6503 17.9487C22.6503 17.681 22.5439 17.4242 22.3547 17.2349L16.6433 11.5235C16.4539 11.3342 16.1972 11.2279 15.9295 11.2279C15.6618 11.2279 15.405 11.3342 15.2157 11.5235Z" fill="white"/>
</svg>
