<svg width="15" height="16" viewBox="0 0 15 16" fill="none" xmlns="http://www.w3.org/2000/svg">
<path d="M4.33333 9.58334C4.10903 9.58334 3.92114 9.50734 3.76967 9.35534C3.61819 9.20334 3.54219 9.01546 3.54167 8.79168C3.54167 8.56737 3.61767 8.37948 3.76967 8.22801C3.92167 8.07654 4.10956 8.00054 4.33333 8.00001C4.55764 8.00001 4.74579 8.07601 4.89779 8.22801C5.04979 8.38001 5.12553 8.5679 5.125 8.79168C5.125 9.01598 5.049 9.20414 4.897 9.35614C4.745 9.50814 4.55711 9.58387 4.33333 9.58334ZM7.5 9.58334C7.27569 9.58334 7.08781 9.50734 6.93633 9.35534C6.78486 9.20334 6.70886 9.01546 6.70833 8.79168C6.70833 8.56737 6.78433 8.37948 6.93633 8.22801C7.08833 8.07654 7.27622 8.00054 7.5 8.00001C7.72431 8.00001 7.91246 8.07601 8.06446 8.22801C8.21646 8.38001 8.29219 8.5679 8.29167 8.79168C8.29167 9.01598 8.21567 9.20414 8.06367 9.35614C7.91167 9.50814 7.72378 9.58387 7.5 9.58334ZM10.6667 9.58334C10.4424 9.58334 10.2545 9.50734 10.103 9.35534C9.95153 9.20334 9.87553 9.01546 9.875 8.79168C9.875 8.56737 9.951 8.37948 10.103 8.22801C10.255 8.07654 10.4429 8.00054 10.6667 8.00001C10.891 8.00001 11.0791 8.07601 11.2311 8.22801C11.3831 8.38001 11.4589 8.5679 11.4583 8.79168C11.4583 9.01598 11.3823 9.20414 11.2303 9.35614C11.0783 9.50814 10.8904 9.58387 10.6667 9.58334ZM1.95833 15.9167C1.52292 15.9167 1.15031 15.7618 0.8405 15.452C0.530694 15.1422 0.375528 14.7693 0.375 14.3333V3.25001C0.375 2.81459 0.530167 2.44198 0.8405 2.13218C1.15083 1.82237 1.52344 1.6672 1.95833 1.66668H2.75V0.0833435H4.33333V1.66668H10.6667V0.0833435H12.25V1.66668H13.0417C13.4771 1.66668 13.85 1.82184 14.1603 2.13218C14.4706 2.44251 14.6255 2.81512 14.625 3.25001V14.3333C14.625 14.7688 14.4701 15.1416 14.1603 15.452C13.8505 15.7623 13.4776 15.9172 13.0417 15.9167H1.95833ZM1.95833 14.3333H13.0417V6.41668H1.95833V14.3333ZM1.95833 4.83334H13.0417V3.25001H1.95833V4.83334Z" fill="#707070"/>
</svg>
