<svg width="46" height="46" viewBox="0 0 46 46" fill="none" xmlns="http://www.w3.org/2000/svg">
<g opacity="0.5">
<path d="M23.125 20.875L17.125 20.875C16.5938 20.875 16.1481 21.055 15.7881 21.415C15.4281 21.775 15.2488 22.22 15.25 22.75C15.25 23.2812 15.43 23.7262 15.79 24.085C16.15 24.4437 16.595 24.6237 17.125 24.625L23.125 24.625L21.4375 26.3125C21.0938 26.6562 20.9219 27.0937 20.9219 27.625C20.9219 28.1562 21.0938 28.5937 21.4375 28.9375C21.7813 29.2812 22.2188 29.4531 22.75 29.4531C23.2813 29.4531 23.7188 29.2812 24.0625 28.9375L28.9375 24.0625C29.3125 23.6875 29.5 23.25 29.5 22.75C29.5 22.25 29.3125 21.8125 28.9375 21.4375L24.0625 16.5625C23.7188 16.2187 23.2813 16.0469 22.75 16.0469C22.2188 16.0469 21.7813 16.2187 21.4375 16.5625C21.0938 16.9062 20.9219 17.3437 20.9219 17.875C20.9219 18.4062 21.0938 18.8437 21.4375 19.1875L23.125 20.875ZM22.75 4C25.3438 4 27.7813 4.4925 30.0625 5.4775C32.3438 6.4625 34.3281 7.79812 36.0156 9.48437C37.7031 11.1719 39.0388 13.1562 40.0225 15.4375C41.0063 17.7187 41.4988 20.1562 41.5 22.75C41.5 25.3438 41.0075 27.7812 40.0225 30.0625C39.0375 32.3437 37.7019 34.3281 36.0156 36.0156C34.3281 37.7031 32.3437 39.0387 30.0625 40.0225C27.7812 41.0062 25.3438 41.4987 22.75 41.5C20.1562 41.5 17.7188 41.0075 15.4375 40.0225C13.1563 39.0375 11.1719 37.7019 9.48438 36.0156C7.79688 34.3281 6.46063 32.3437 5.47563 30.0625C4.49063 27.7812 3.99875 25.3437 4 22.75C4 20.1562 4.4925 17.7187 5.4775 15.4375C6.4625 13.1562 7.79813 11.1719 9.48438 9.48437C11.1719 7.79687 13.1563 6.46062 15.4375 5.47563C17.7188 4.49063 20.1563 3.99875 22.75 4Z" fill="#F8F8F8"/>
</g>
</svg>
