<svg width="15" height="15" viewBox="0 0 15 15" fill="none" xmlns="http://www.w3.org/2000/svg">
<path d="M4.47417 0.403564H10.3694C12.6153 0.403564 14.44 2.22829 14.44 4.47411V10.3694C14.44 11.449 14.0111 12.4843 13.2477 13.2477C12.4844 14.0111 11.449 14.4399 10.3694 14.4399H4.47417C2.22835 14.4399 0.403625 12.6152 0.403625 10.3694V4.47411C0.403625 3.39453 0.832485 2.35917 1.59586 1.5958C2.35924 0.832424 3.39459 0.403564 4.47417 0.403564ZM4.33381 1.8072C3.66372 1.8072 3.02109 2.07339 2.54727 2.54721C2.07345 3.02103 1.80726 3.66366 1.80726 4.33374V10.5097C1.80726 11.9064 2.93719 13.0363 4.33381 13.0363H10.5098C11.1799 13.0363 11.8225 12.7701 12.2963 12.2963C12.7702 11.8225 13.0363 11.1798 13.0363 10.5097V4.33374C13.0363 2.93713 11.9064 1.8072 10.5098 1.8072H4.33381ZM11.1063 2.85993C11.339 2.85993 11.5622 2.95235 11.7267 3.11687C11.8912 3.28139 11.9836 3.50453 11.9836 3.7372C11.9836 3.96987 11.8912 4.193 11.7267 4.35752C11.5622 4.52205 11.339 4.61447 11.1063 4.61447C10.8737 4.61447 10.6505 4.52205 10.486 4.35752C10.3215 4.193 10.2291 3.96987 10.2291 3.7372C10.2291 3.50453 10.3215 3.28139 10.486 3.11687C10.6505 2.95235 10.8737 2.85993 11.1063 2.85993ZM7.4218 3.91265C8.35247 3.91265 9.24502 4.28236 9.9031 4.94044C10.5612 5.59852 10.9309 6.49107 10.9309 7.42174C10.9309 8.35241 10.5612 9.24496 9.9031 9.90304C9.24502 10.5611 8.35247 10.9308 7.4218 10.9308C6.49114 10.9308 5.59859 10.5611 4.9405 9.90304C4.28242 9.24496 3.91271 8.35241 3.91271 7.42174C3.91271 6.49107 4.28242 5.59852 4.9405 4.94044C5.59859 4.28236 6.49114 3.91265 7.4218 3.91265ZM7.4218 5.31629C6.8634 5.31629 6.32787 5.53811 5.93302 5.93296C5.53817 6.32781 5.31635 6.86334 5.31635 7.42174C5.31635 7.98014 5.53817 8.51567 5.93302 8.91052C6.32787 9.30537 6.8634 9.5272 7.4218 9.5272C7.98021 9.5272 8.51574 9.30537 8.91059 8.91052C9.30543 8.51567 9.52726 7.98014 9.52726 7.42174C9.52726 6.86334 9.30543 6.32781 8.91059 5.93296C8.51574 5.53811 7.98021 5.31629 7.4218 5.31629Z" fill="white"/>
</svg>
