<svg width="16" height="16" viewBox="0 0 16 16" fill="none" xmlns="http://www.w3.org/2000/svg">
<path fill-rule="evenodd" clip-rule="evenodd" d="M1.94097 7.82284C1.94107 6.6909 2.26779 5.58304 2.88191 4.63219C3.49604 3.68133 4.37149 2.92788 5.40321 2.46223C6.43493 1.99658 7.57909 1.83852 8.69842 2.00701C9.81774 2.17551 10.8647 2.6634 11.7136 3.41214C12.5625 4.16088 13.1773 5.13868 13.4843 6.22819C13.7913 7.3177 13.7774 8.47265 13.4443 9.55445C13.1111 10.6363 12.4729 11.599 11.6062 12.327C10.7395 13.0551 9.68116 13.5177 8.55811 13.6592V9.29331H10.0286C10.2236 9.29331 10.4106 9.21585 10.5485 9.07797C10.6864 8.94008 10.7638 8.75307 10.7638 8.55808C10.7638 8.36308 10.6864 8.17607 10.5485 8.03818C10.4106 7.9003 10.2236 7.82284 10.0286 7.82284H8.55811V6.35236C8.55811 6.15736 8.63557 5.97035 8.77345 5.83247C8.91134 5.69459 9.09835 5.61712 9.29334 5.61712H9.66096C9.85596 5.61712 10.043 5.53966 10.1809 5.40178C10.3187 5.26389 10.3962 5.07688 10.3962 4.88189C10.3962 4.68689 10.3187 4.49988 10.1809 4.36199C10.043 4.22411 9.85596 4.14665 9.66096 4.14665H9.29334C8.70835 4.14665 8.14732 4.37904 7.73367 4.79269C7.32002 5.20634 7.08763 5.76737 7.08763 6.35236V7.82284H5.61715C5.42216 7.82284 5.23515 7.9003 5.09726 8.03818C4.95938 8.17607 4.88192 8.36308 4.88192 8.55808C4.88192 8.75307 4.95938 8.94008 5.09726 9.07797C5.23515 9.21585 5.42216 9.29331 5.61715 9.29331H7.08763V13.6592C5.66619 13.4799 4.35903 12.7881 3.41144 11.7135C2.46386 10.639 1.94099 9.25553 1.94097 7.82284ZM7.82287 15.1752C11.8836 15.1752 15.1752 11.8836 15.1752 7.82284C15.1752 3.76212 11.8836 0.470459 7.82287 0.470459C3.76215 0.470459 0.47049 3.76212 0.47049 7.82284C0.47049 11.8836 3.76215 15.1752 7.82287 15.1752Z" fill="white"/>
</svg>
