<svg width="13" height="13" viewBox="0 0 13 13" fill="none" xmlns="http://www.w3.org/2000/svg">
<path d="M11.8951 12.8158C10.504 12.8158 9.12956 12.5126 7.77184 11.9063C6.41413 11.3 5.17883 10.4402 4.06594 9.32688C2.95306 8.21399 2.09347 6.97869 1.48717 5.62098C0.880874 4.26326 0.577502 2.88885 0.577057 1.49775C0.577057 1.29743 0.64383 1.1305 0.777376 0.99695C0.910922 0.863404 1.07785 0.796631 1.27817 0.796631H3.98248C4.13828 0.796631 4.27739 0.849604 4.39981 0.95555C4.52223 1.0615 4.59456 1.18658 4.61682 1.33081L5.05085 3.66787C5.0731 3.84593 5.06754 3.99617 5.03415 4.11859C5.00077 4.241 4.93956 4.34673 4.85053 4.43576L3.23128 6.07169C3.45386 6.48346 3.71806 6.88121 4.02388 7.26493C4.3297 7.64865 4.66646 8.01879 5.03415 8.37536C5.37915 8.72036 5.74083 9.04042 6.11921 9.33556C6.49759 9.63069 6.89823 9.90046 7.32113 10.1448L8.89029 8.57568C8.99045 8.47552 9.12133 8.40051 9.28292 8.35066C9.44451 8.3008 9.60298 8.28678 9.75834 8.30859L12.062 8.776C12.2178 8.82051 12.3458 8.90131 12.446 9.01839C12.5461 9.13546 12.5962 9.26611 12.5962 9.41034V12.1146C12.5962 12.315 12.5294 12.4819 12.3959 12.6154C12.2623 12.749 12.0954 12.8158 11.8951 12.8158ZM2.59694 4.80301L3.69869 3.70125L3.41491 2.13209H1.92921C1.98485 2.58837 2.06276 3.03909 2.16291 3.48424C2.26307 3.9294 2.40775 4.36898 2.59694 4.80301ZM8.57312 10.7792C9.00714 10.9684 9.44963 11.1186 9.90057 11.2299C10.3515 11.3412 10.8049 11.4135 11.2607 11.4469V9.97791L9.69157 9.66074L8.57312 10.7792Z" fill="white"/>
</svg>
