<svg width="17" height="15" viewBox="0 0 17 15" fill="none" xmlns="http://www.w3.org/2000/svg">
<path d="M11.3119 2.45162C10.7023 2.45152 10.117 2.69074 9.68198 3.1178C9.24697 3.54486 8.99699 4.12563 8.98585 4.73514L8.96339 5.99841C8.96208 6.06624 8.94644 6.13302 8.9175 6.19438C8.88856 6.25573 8.84698 6.31028 8.79547 6.35444C8.74397 6.39859 8.68371 6.43136 8.61866 6.45059C8.5536 6.46982 8.48521 6.47508 8.41798 6.46602L7.16514 6.29598C5.51847 6.0714 3.93998 5.31263 2.42486 4.05097C1.94602 6.70584 2.88204 8.54501 5.13829 9.96388L6.53952 10.8446C6.60614 10.8863 6.66152 10.9438 6.70079 11.0119C6.74007 11.08 6.76206 11.1568 6.76483 11.2353C6.7676 11.3139 6.75107 11.392 6.71668 11.4627C6.6823 11.5334 6.63111 11.5947 6.56759 11.641L5.29068 12.5738C6.05025 12.6212 6.77132 12.5875 7.36967 12.4688C11.1539 11.7132 13.67 8.86584 13.67 4.16887C13.67 3.78548 12.8575 2.45162 11.3119 2.45162ZM7.3817 4.70546C7.3957 3.9323 7.63747 3.18045 8.07675 2.54404C8.51602 1.90763 9.13327 1.41495 9.85123 1.12769C10.5692 0.84042 11.3559 0.771334 12.1129 0.929076C12.87 1.08682 13.5637 1.46438 14.1071 2.01449C14.6774 2.01048 15.1627 2.15485 16.2471 1.49715C15.9792 2.81256 15.846 3.38364 15.2741 4.16887C15.2741 10.2983 11.5068 13.2789 7.68328 14.0416C5.06289 14.5646 1.25062 13.7056 0.15979 12.565C0.71563 12.5217 2.97749 12.2787 4.28488 11.3218C3.17801 10.5919 -1.22379 8.0012 1.6693 1.03676C3.02722 2.62247 4.40438 3.70206 5.8 4.27474C6.728 4.65573 6.9566 4.64851 7.3825 4.70626" fill="white"/>
</svg>
