<svg width="18" height="18" viewBox="0 0 18 18" fill="none" xmlns="http://www.w3.org/2000/svg">
<path d="M14.6076 1.92993H3.03796C2.42622 1.92993 1.92993 2.42622 1.92993 3.03796V14.6076C1.92993 15.2194 2.42622 15.7156 3.03796 15.7156H14.6076C15.2194 15.7156 15.7156 15.2194 15.7156 14.6076V3.03796C15.7156 2.42622 15.2194 1.92993 14.6076 1.92993ZM14.6076 14.6128C6.89106 14.6111 3.03279 14.6093 3.03279 14.6076C3.03451 6.89106 3.03623 3.03279 3.03796 3.03279C10.7545 3.03451 14.6128 3.03623 14.6128 3.03796C14.6111 10.7545 14.6093 14.6128 14.6076 14.6128ZM3.97366 7.09785H6.01912V13.6771H3.97366V7.09785ZM4.99725 6.19833C5.65035 6.19833 6.18282 5.66758 6.18282 5.01276C6.18282 4.85707 6.15216 4.7029 6.09258 4.55906C6.033 4.41522 5.94567 4.28453 5.83558 4.17444C5.72549 4.06435 5.59479 3.97702 5.45095 3.91744C5.30711 3.85786 5.15294 3.82719 4.99725 3.82719C4.84156 3.82719 4.68739 3.85786 4.54355 3.91744C4.39971 3.97702 4.26902 4.06435 4.15893 4.17444C4.04884 4.28453 3.96151 4.41522 3.90193 4.55906C3.84235 4.7029 3.81168 4.85707 3.81168 5.01276C3.80996 5.66758 4.34071 6.19833 4.99725 6.19833ZM9.34492 10.4219C9.34492 9.56377 9.50863 8.73318 10.5718 8.73318C11.6196 8.73318 11.6351 9.71369 11.6351 10.4771V13.6771H13.6788V10.0687C13.6788 8.29721 13.2962 6.93414 11.2267 6.93414C10.2324 6.93414 9.56549 7.4804 9.2915 7.99737H9.26393V7.09785H7.30119V13.6771H9.34492V10.4219Z" fill="white"/>
</svg>
