<svg width="20" height="20" viewBox="0 0 20 20" fill="none" xmlns="http://www.w3.org/2000/svg">
<path d="M16.5566 2.1875H3.44336C2.75 2.1875 2.1875 2.75 2.1875 3.44336V16.5566C2.1875 17.25 2.75 17.8125 3.44336 17.8125H16.5566C17.25 17.8125 17.8125 17.25 17.8125 16.5566V3.44336C17.8125 2.75 17.25 2.1875 16.5566 2.1875ZM16.5566 16.5625C7.81055 16.5605 3.4375 16.5586 3.4375 16.5566C3.43945 7.81055 3.44141 3.4375 3.44336 3.4375C12.1895 3.43945 16.5625 3.44141 16.5625 3.44336C16.5605 12.1895 16.5586 16.5625 16.5566 16.5625ZM4.50391 8.04492H6.82227V15.502H4.50391V8.04492ZM5.66406 7.02539C6.4043 7.02539 7.00781 6.42383 7.00781 5.68164C7.00781 5.50518 6.97306 5.33044 6.90553 5.16741C6.838 5.00438 6.73902 4.85624 6.61424 4.73147C6.48946 4.60669 6.34132 4.50771 6.17829 4.44018C6.01526 4.37265 5.84053 4.33789 5.66406 4.33789C5.4876 4.33789 5.31286 4.37265 5.14983 4.44018C4.9868 4.50771 4.83867 4.60669 4.71389 4.73147C4.58911 4.85624 4.49013 5.00438 4.4226 5.16741C4.35507 5.33044 4.32031 5.50518 4.32031 5.68164C4.31836 6.42383 4.91992 7.02539 5.66406 7.02539ZM10.5918 11.8125C10.5918 10.8398 10.7773 9.89844 11.9824 9.89844C13.1699 9.89844 13.1875 11.0098 13.1875 11.875V15.502H15.5039V11.4121C15.5039 9.4043 15.0703 7.85938 12.7246 7.85938C11.5977 7.85938 10.8418 8.47852 10.5312 9.06445H10.5V8.04492H8.27539V15.502H10.5918V11.8125Z" fill="white"/>
</svg>
