<svg width="19" height="18" viewBox="0 0 19 18" fill="none" xmlns="http://www.w3.org/2000/svg">
<path d="M15.2617 1.92993H3.69201C3.08027 1.92993 2.58398 2.42622 2.58398 3.03796V14.6076C2.58398 15.2194 3.08027 15.7156 3.69201 15.7156H15.2617C15.8734 15.7156 16.3697 15.2194 16.3697 14.6076V3.03796C16.3697 2.42622 15.8734 1.92993 15.2617 1.92993ZM15.2617 14.6128C7.54512 14.6111 3.68684 14.6093 3.68684 14.6076C3.68856 6.89106 3.69029 3.03279 3.69201 3.03279C11.4086 3.03451 15.2668 3.03623 15.2668 3.03796C15.2651 10.7545 15.2634 14.6128 15.2617 14.6128ZM4.62772 7.09785H6.67317V13.6771H4.62772V7.09785ZM5.6513 6.19833C6.3044 6.19833 6.83688 5.66758 6.83688 5.01276C6.83688 4.85707 6.80621 4.7029 6.74663 4.55906C6.68705 4.41522 6.59972 4.28453 6.48963 4.17444C6.37954 4.06435 6.24884 3.97702 6.105 3.91744C5.96116 3.85786 5.807 3.82719 5.6513 3.82719C5.49561 3.82719 5.34145 3.85786 5.19761 3.91744C5.05377 3.97702 4.92307 4.06435 4.81298 4.17444C4.70289 4.28453 4.61556 4.41522 4.55598 4.55906C4.4964 4.7029 4.46573 4.85707 4.46573 5.01276C4.46401 5.66758 4.99476 6.19833 5.6513 6.19833ZM9.99897 10.4219C9.99897 9.56377 10.1627 8.73318 11.2259 8.73318C12.2736 8.73318 12.2891 9.71369 12.2891 10.4771V13.6771H14.3329V10.0687C14.3329 8.29721 13.9503 6.93414 11.8807 6.93414C10.8864 6.93414 10.2195 7.4804 9.94555 7.99737H9.91798V7.09785H7.95524V13.6771H9.99897V10.4219Z" fill="white"/>
</svg>
