<svg width="17" height="17" viewBox="0 0 17 17" fill="none" xmlns="http://www.w3.org/2000/svg">
<path d="M13.8952 14.8158C12.5041 14.8158 11.1297 14.5126 9.77193 13.9063C8.41422 13.3 7.17892 12.4402 6.06604 11.3269C4.95315 10.214 4.09356 8.97869 3.48726 7.62098C2.88097 6.26326 2.57759 4.88885 2.57715 3.49775C2.57715 3.29743 2.64392 3.1305 2.77747 2.99695C2.91101 2.8634 3.07795 2.79663 3.27826 2.79663H5.98257C6.13837 2.79663 6.27748 2.8496 6.3999 2.95555C6.52232 3.0615 6.59466 3.18658 6.61691 3.33081L7.05094 5.66787C7.07319 5.84593 7.06763 5.99617 7.03424 6.11859C7.00086 6.241 6.93965 6.34673 6.85062 6.43576L5.23137 8.07169C5.45395 8.48346 5.71815 8.88121 6.02397 9.26493C6.32979 9.64865 6.66655 10.0188 7.03424 10.3754C7.37924 10.7204 7.74092 11.0404 8.1193 11.3356C8.49768 11.6307 8.89832 11.9005 9.32122 12.1448L10.8904 10.5757C10.9905 10.4755 11.1214 10.4005 11.283 10.3507C11.4446 10.3008 11.6031 10.2868 11.7584 10.3086L14.0621 10.776C14.2179 10.8205 14.3459 10.9013 14.446 11.0184C14.5462 11.1355 14.5963 11.2661 14.5963 11.4103V14.1146C14.5963 14.315 14.5295 14.4819 14.396 14.6154C14.2624 14.749 14.0955 14.8158 13.8952 14.8158ZM4.59703 6.80301L5.69878 5.70125L5.415 4.13209H3.9293C3.98495 4.58837 4.06285 5.03909 4.16301 5.48424C4.26317 5.9294 4.40784 6.36898 4.59703 6.80301ZM10.5732 12.7792C11.0072 12.9684 11.4497 13.1186 11.9007 13.2299C12.3516 13.3412 12.805 13.4135 13.2608 13.4469V11.9779L11.6917 11.6607L10.5732 12.7792Z" fill="white"/>
</svg>
