<svg width="18" height="17" viewBox="0 0 18 17" fill="none" xmlns="http://www.w3.org/2000/svg">
<path d="M6.12816 1.40356H12.0234C14.2692 1.40356 16.094 3.22829 16.094 5.47411V11.3694C16.094 12.449 15.6651 13.4843 14.9017 14.2477C14.1384 15.0111 13.103 15.4399 12.0234 15.4399H6.12816C3.88234 15.4399 2.05762 13.6152 2.05762 11.3694V5.47411C2.05762 4.39453 2.48648 3.35917 3.24985 2.5958C4.01323 1.83242 5.04859 1.40356 6.12816 1.40356ZM5.9878 2.8072C5.31772 2.8072 4.67508 3.07339 4.20126 3.54721C3.72744 4.02103 3.46125 4.66366 3.46125 5.33374V11.5097C3.46125 12.9064 4.59118 14.0363 5.9878 14.0363H12.1638C12.8339 14.0363 13.4765 13.7701 13.9503 13.2963C14.4242 12.8225 14.6903 12.1798 14.6903 11.5097V5.33374C14.6903 3.93713 13.5604 2.8072 12.1638 2.8072H5.9878ZM12.7603 3.85993C12.993 3.85993 13.2161 3.95235 13.3807 4.11687C13.5452 4.28139 13.6376 4.50453 13.6376 4.7372C13.6376 4.96987 13.5452 5.193 13.3807 5.35752C13.2161 5.52205 12.993 5.61447 12.7603 5.61447C12.5277 5.61447 12.3045 5.52205 12.14 5.35752C11.9755 5.193 11.8831 4.96987 11.8831 4.7372C11.8831 4.50453 11.9755 4.28139 12.14 4.11687C12.3045 3.95235 12.5277 3.85993 12.7603 3.85993ZM9.0758 4.91265C10.0065 4.91265 10.899 5.28236 11.5571 5.94044C12.2152 6.59852 12.5849 7.49107 12.5849 8.42174C12.5849 9.35241 12.2152 10.245 11.5571 10.903C10.899 11.5611 10.0065 11.9308 9.0758 11.9308C8.14513 11.9308 7.25258 11.5611 6.59449 10.903C5.93641 10.245 5.56671 9.35241 5.56671 8.42174C5.56671 7.49107 5.93641 6.59852 6.59449 5.94044C7.25258 5.28236 8.14513 4.91265 9.0758 4.91265ZM9.0758 6.31629C8.5174 6.31629 7.98186 6.53811 7.58702 6.93296C7.19217 7.32781 6.97034 7.86334 6.97034 8.42174C6.97034 8.98014 7.19217 9.51567 7.58702 9.91052C7.98186 10.3054 8.5174 10.5272 9.0758 10.5272C9.6342 10.5272 10.1697 10.3054 10.5646 9.91052C10.9594 9.51567 11.1812 8.98014 11.1812 8.42174C11.1812 7.86334 10.9594 7.32781 10.5646 6.93296C10.1697 6.53811 9.6342 6.31629 9.0758 6.31629Z" fill="white"/>
</svg>
