<svg width="17" height="17" viewBox="0 0 17 17" fill="none" xmlns="http://www.w3.org/2000/svg">
<path d="M5.47411 1.40356H11.3694C13.6152 1.40356 15.4399 3.22829 15.4399 5.47411V11.3694C15.4399 12.449 15.0111 13.4843 14.2477 14.2477C13.4843 15.0111 12.449 15.4399 11.3694 15.4399H5.47411C3.22829 15.4399 1.40356 13.6152 1.40356 11.3694V5.47411C1.40356 4.39453 1.83242 3.35917 2.5958 2.5958C3.35917 1.83242 4.39453 1.40356 5.47411 1.40356ZM5.33374 2.8072C4.66366 2.8072 4.02103 3.07339 3.54721 3.54721C3.07339 4.02103 2.8072 4.66366 2.8072 5.33374V11.5097C2.8072 12.9064 3.93713 14.0363 5.33374 14.0363H11.5097C12.1798 14.0363 12.8225 13.7701 13.2963 13.2963C13.7701 12.8225 14.0363 12.1798 14.0363 11.5097V5.33374C14.0363 3.93713 12.9064 2.8072 11.5097 2.8072H5.33374ZM12.1063 3.85993C12.339 3.85993 12.5621 3.95235 12.7266 4.11687C12.8911 4.28139 12.9836 4.50453 12.9836 4.7372C12.9836 4.96987 12.8911 5.193 12.7266 5.35752C12.5621 5.52205 12.339 5.61447 12.1063 5.61447C11.8736 5.61447 11.6505 5.52205 11.486 5.35752C11.3214 5.193 11.229 4.96987 11.229 4.7372C11.229 4.50453 11.3214 4.28139 11.486 4.11687C11.6505 3.95235 11.8736 3.85993 12.1063 3.85993ZM8.42174 4.91265C9.35241 4.91265 10.245 5.28236 10.903 5.94044C11.5611 6.59852 11.9308 7.49107 11.9308 8.42174C11.9308 9.35241 11.5611 10.245 10.903 10.903C10.245 11.5611 9.35241 11.9308 8.42174 11.9308C7.49107 11.9308 6.59852 11.5611 5.94044 10.903C5.28236 10.245 4.91265 9.35241 4.91265 8.42174C4.91265 7.49107 5.28236 6.59852 5.94044 5.94044C6.59852 5.28236 7.49107 4.91265 8.42174 4.91265ZM8.42174 6.31629C7.86334 6.31629 7.32781 6.53811 6.93296 6.93296C6.53811 7.32781 6.31629 7.86334 6.31629 8.42174C6.31629 8.98014 6.53811 9.51567 6.93296 9.91052C7.32781 10.3054 7.86334 10.5272 8.42174 10.5272C8.98014 10.5272 9.51567 10.3054 9.91052 9.91052C10.3054 9.51567 10.5272 8.98014 10.5272 8.42174C10.5272 7.86334 10.3054 7.32781 9.91052 6.93296C9.51567 6.53811 8.98014 6.31629 8.42174 6.31629Z" fill="white"/>
</svg>
