<svg width="19" height="20" viewBox="0 0 19 20" fill="none" xmlns="http://www.w3.org/2000/svg">
<g clip-path="url(#clip0_65_296)">
<path d="M9.49992 3.33325C10.1768 3.33325 10.8711 3.35159 11.544 3.38159L12.3388 3.42159L13.0996 3.46909L13.8121 3.51992L14.4629 3.57325C15.1691 3.63015 15.8336 3.94737 16.3395 4.46912C16.8455 4.99086 17.1604 5.6837 17.229 6.42575L17.2606 6.77992L17.32 7.53825C17.3754 8.32408 17.4166 9.18075 17.4166 9.99992C17.4166 10.8191 17.3754 11.6758 17.32 12.4616L17.2606 13.2199C17.2503 13.3416 17.24 13.4591 17.229 13.5741C17.1604 14.3163 16.8453 15.0092 16.3392 15.531C15.8331 16.0527 15.1684 16.3699 14.4621 16.4266L13.8129 16.4791L13.1004 16.5308L12.3388 16.5782L11.544 16.6182C10.863 16.6494 10.1815 16.6655 9.49992 16.6666C8.81831 16.6655 8.1368 16.6494 7.45584 16.6182L6.661 16.5782L5.90021 16.5308L5.18771 16.4791L4.53696 16.4266C3.83075 16.3697 3.16623 16.0525 2.66029 15.5307C2.15436 15.009 1.83941 14.3161 1.77088 13.5741L1.73921 13.2199L1.67984 12.4616C1.6193 11.6425 1.58709 10.8214 1.58325 9.99992C1.58325 9.18075 1.62442 8.32408 1.67984 7.53825L1.73921 6.77992C1.7495 6.65825 1.75979 6.54075 1.77088 6.42575C1.83939 5.68383 2.15422 4.9911 2.65999 4.46937C3.16577 3.94764 3.8301 3.63034 4.53617 3.57325L5.18613 3.51992L5.89863 3.46909L6.66021 3.42159L7.45504 3.38159C8.13627 3.35045 8.81805 3.33433 9.49992 3.33325ZM9.49992 4.99992C8.84679 4.99992 8.17467 5.01825 7.52075 5.04659L6.7465 5.08575L6.00313 5.13159L5.30488 5.18159L4.66521 5.23409C4.32901 5.25919 4.01212 5.40879 3.7707 5.65636C3.52928 5.90392 3.37893 6.23347 3.34629 6.58658C3.25367 7.59408 3.16659 8.84825 3.16659 9.99992C3.16659 11.1516 3.25367 12.4058 3.34629 13.4133C3.41359 14.1399 3.96142 14.7049 4.66521 14.7658L5.30488 14.8174L6.00313 14.8674L6.7465 14.9141L7.52075 14.9533C8.17467 14.9816 8.84679 14.9999 9.49992 14.9999C10.153 14.9999 10.8252 14.9816 11.4791 14.9533L12.2533 14.9141L12.9967 14.8682L13.695 14.8183L14.3346 14.7658C14.6708 14.7406 14.9877 14.591 15.2291 14.3435C15.4706 14.0959 15.6209 13.7664 15.6535 13.4133C15.7462 12.4058 15.8333 11.1516 15.8333 9.99992C15.8333 8.84825 15.7462 7.59408 15.6535 6.58658C15.6209 6.23347 15.4706 5.90392 15.2291 5.65636C14.9877 5.40879 14.6708 5.25919 14.3346 5.23409L13.695 5.18242L12.9967 5.13242L12.2533 5.08575L11.4791 5.04659C10.8197 5.01672 10.1599 5.00116 9.49992 4.99992ZM7.91658 7.97908C7.91653 7.89764 7.93539 7.81741 7.9715 7.74538C8.00761 7.67335 8.0599 7.6117 8.12381 7.56578C8.18771 7.51987 8.26131 7.49108 8.33819 7.48192C8.41508 7.47277 8.49292 7.48352 8.56496 7.51325L8.62908 7.54658L11.9541 9.56658C12.0203 9.6068 12.0763 9.66324 12.1174 9.73112C12.1584 9.79899 12.1833 9.87629 12.1899 9.95646C12.1965 10.0366 12.1846 10.1173 12.1553 10.1916C12.126 10.2659 12.08 10.3316 12.0214 10.3833L11.9541 10.4333L8.62908 12.4541C8.56208 12.4949 8.48661 12.5179 8.40923 12.521C8.33186 12.5241 8.25494 12.5073 8.18516 12.472C8.11539 12.4367 8.05487 12.3839 8.00889 12.3183C7.96291 12.2528 7.93285 12.1763 7.92133 12.0958L7.91658 12.0208V7.97908Z" fill="white"/>
</g>
<defs>
<clipPath id="clip0_65_296">
<rect width="19" height="20" fill="white"/>
</clipPath>
</defs>
</svg>
