<svg width="18" height="18" viewBox="0 0 18 18" fill="none" xmlns="http://www.w3.org/2000/svg">
<g clip-path="url(#clip0_262_749)">
<path fill-rule="evenodd" clip-rule="evenodd" d="M2.94093 8.82284C2.94104 7.6909 3.26776 6.58304 3.88188 5.63219C4.49601 4.68133 5.37146 3.92788 6.40318 3.46223C7.4349 2.99658 8.57906 2.83852 9.69839 3.00701C10.8177 3.17551 11.8646 3.6634 12.7136 4.41214C13.5625 5.16088 14.1773 6.13868 14.4843 7.22819C14.7913 8.3177 14.7774 9.47265 14.4442 10.5545C14.1111 11.6363 13.4729 12.599 12.6062 13.327C11.7395 14.0551 10.6811 14.5177 9.55808 14.6592V10.2933H11.0286C11.2235 10.2933 11.4106 10.2159 11.5484 10.078C11.6863 9.94008 11.7638 9.75307 11.7638 9.55808C11.7638 9.36308 11.6863 9.17607 11.5484 9.03818C11.4106 8.9003 11.2235 8.82284 11.0286 8.82284H9.55808V7.35236C9.55808 7.15736 9.63554 6.97035 9.77342 6.83247C9.91131 6.69459 10.0983 6.61712 10.2933 6.61712H10.6609C10.8559 6.61712 11.0429 6.53966 11.1808 6.40178C11.3187 6.26389 11.3962 6.07688 11.3962 5.88189C11.3962 5.68689 11.3187 5.49988 11.1808 5.36199C11.0429 5.22411 10.8559 5.14665 10.6609 5.14665H10.2933C9.70832 5.14665 9.14729 5.37904 8.73364 5.79269C8.31999 6.20634 8.0876 6.76737 8.0876 7.35236V8.82284H6.61712C6.42213 8.82284 6.23512 8.9003 6.09723 9.03818C5.95935 9.17607 5.88189 9.36308 5.88189 9.55808C5.88189 9.75307 5.95935 9.94008 6.09723 10.078C6.23512 10.2159 6.42213 10.2933 6.61712 10.2933H8.0876V14.6592C6.66616 14.4799 5.359 13.7881 4.41141 12.7135C3.46383 11.639 2.94096 10.2555 2.94093 8.82284ZM8.82284 16.1752C12.8836 16.1752 16.1752 12.8836 16.1752 8.82284C16.1752 4.76212 12.8836 1.47046 8.82284 1.47046C4.76212 1.47046 1.47046 4.76212 1.47046 8.82284C1.47046 12.8836 4.76212 16.1752 8.82284 16.1752Z" fill="white"/>
</g>
<defs>
<clipPath id="clip0_262_749">
<rect width="17.6457" height="17.6457" fill="white"/>
</clipPath>
</defs>
</svg>
