<svg width="18" height="18" viewBox="0 0 18 18" fill="none" xmlns="http://www.w3.org/2000/svg">
<g clip-path="url(#clip0_2006_54)">
<path d="M9.0758 2.94092C9.67585 2.94092 10.2913 2.95709 10.8879 2.98356L11.5925 3.01885L12.267 3.06076L12.8986 3.10561L13.4755 3.15267C14.1015 3.20287 14.6907 3.48275 15.1392 3.94308C15.5877 4.4034 15.8669 5.01469 15.9276 5.66939L15.9557 5.98186L16.0084 6.65093C16.0575 7.34426 16.094 8.10008 16.094 8.82282C16.094 9.54556 16.0575 10.3014 16.0084 10.9947L15.9557 11.6638C15.9466 11.7711 15.9375 11.8748 15.9276 11.9763C15.8669 12.6311 15.5876 13.2424 15.1389 13.7028C14.6902 14.1631 14.101 14.4429 13.4748 14.493L12.8993 14.5393L12.2677 14.5849L11.5925 14.6268L10.8879 14.6621C10.2842 14.6896 9.68005 14.7038 9.0758 14.7047C8.47155 14.7038 7.86738 14.6896 7.2637 14.6621L6.55908 14.6268L5.88463 14.5849L5.25299 14.5393L4.6761 14.493C4.05004 14.4428 3.46094 14.1629 3.01242 13.7026C2.5639 13.2422 2.28471 12.631 2.22395 11.9763L2.19588 11.6638L2.14324 10.9947C2.08958 10.2721 2.06102 9.54763 2.05762 8.82282C2.05762 8.10008 2.09411 7.34426 2.14324 6.65093L2.19588 5.98186C2.205 5.87452 2.21412 5.77085 2.22395 5.66939C2.28468 5.0148 2.56378 4.40361 3.01215 3.9433C3.46053 3.48299 4.04947 3.20303 4.6754 3.15267L5.25159 3.10561L5.88323 3.06076L6.55838 3.01885L7.263 2.98356C7.86691 2.95609 8.47131 2.94187 9.0758 2.94092ZM9.0758 4.41139C8.4968 4.41139 7.90095 4.42757 7.32125 4.45257L6.63487 4.48712L5.97587 4.52756L5.35686 4.57168L4.78979 4.618C4.49175 4.64015 4.21083 4.77214 3.99681 4.99056C3.78279 5.20898 3.6495 5.49974 3.62057 5.81129C3.53845 6.70019 3.46125 7.80672 3.46125 8.82282C3.46125 9.83892 3.53845 10.9455 3.62057 11.8344C3.68022 12.4755 4.16588 12.974 4.78979 13.0276L5.35686 13.0732L5.97587 13.1173L6.63487 13.1585L7.32125 13.1931C7.90095 13.2181 8.4968 13.2342 9.0758 13.2342C9.6548 13.2342 10.2506 13.2181 10.8303 13.1931L11.5167 13.1585L12.1757 13.1181L12.7947 13.074L13.3618 13.0276C13.6598 13.0055 13.9408 12.8735 14.1548 12.6551C14.3688 12.4367 14.5021 12.1459 14.531 11.8344C14.6131 10.9455 14.6903 9.83892 14.6903 8.82282C14.6903 7.80672 14.6131 6.70019 14.531 5.81129C14.5021 5.49974 14.3688 5.20898 14.1548 4.99056C13.9408 4.77214 13.6598 4.64015 13.3618 4.618L12.7947 4.57241L12.1757 4.5283L11.5167 4.48712L10.8303 4.45257C10.2458 4.42622 9.66085 4.41249 9.0758 4.41139ZM7.67216 7.03987C7.67211 6.96801 7.68883 6.89723 7.72084 6.83367C7.75286 6.77012 7.79921 6.71573 7.85586 6.67522C7.91252 6.63471 7.97776 6.60931 8.04592 6.60123C8.11408 6.59315 8.18309 6.60264 8.24695 6.62887L8.3038 6.65828L11.2514 8.4405C11.3101 8.47598 11.3598 8.52577 11.3962 8.58566C11.4326 8.64554 11.4546 8.71375 11.4605 8.78448C11.4664 8.8552 11.4558 8.92637 11.4298 8.99193C11.4038 9.05748 11.3631 9.11549 11.3111 9.16103L11.2514 9.20514L8.3038 10.9881C8.2444 11.0241 8.17749 11.0444 8.1089 11.0472C8.04031 11.0499 7.97211 11.0351 7.91026 11.0039C7.8484 10.9727 7.79475 10.9262 7.75399 10.8683C7.71322 10.8105 7.68658 10.7431 7.67637 10.6719L7.67216 10.6058V7.03987Z" fill="white"/>
</g>
<defs>
<clipPath id="clip0_2006_54">
<rect width="16.8436" height="17.6457" fill="white" transform="translate(0.654053)"/>
</clipPath>
</defs>
</svg>
