<svg width="17" height="18" viewBox="0 0 17 18" fill="none" xmlns="http://www.w3.org/2000/svg">
<g clip-path="url(#clip0_262_747)">
<path d="M8.42174 2.94092C9.0218 2.94092 9.63729 2.95709 10.2338 2.98356L10.9385 3.01885L11.6129 3.06076L12.2445 3.10561L12.8214 3.15267C13.4475 3.20287 14.0366 3.48275 14.4851 3.94308C14.9336 4.4034 15.2128 5.01469 15.2736 5.66939L15.3017 5.98186L15.3543 6.65093C15.4034 7.34426 15.4399 8.10008 15.4399 8.82282C15.4399 9.54556 15.4034 10.3014 15.3543 10.9947L15.3017 11.6638C15.2925 11.7711 15.2834 11.8748 15.2736 11.9763C15.2128 12.6311 14.9335 13.2424 14.4849 13.7028C14.0362 14.1631 13.4469 14.4429 12.8207 14.493L12.2452 14.5393L11.6136 14.5849L10.9385 14.6268L10.2338 14.6621C9.63016 14.6896 9.02599 14.7038 8.42174 14.7047C7.81749 14.7038 7.21333 14.6896 6.60965 14.6621L5.90502 14.6268L5.23058 14.5849L4.59894 14.5393L4.02205 14.493C3.39599 14.4428 2.80689 14.1629 2.35837 13.7026C1.90985 13.2422 1.63065 12.631 1.5699 11.9763L1.54182 11.6638L1.48919 10.9947C1.43552 10.2721 1.40696 9.54763 1.40356 8.82282C1.40356 8.10008 1.44006 7.34426 1.48919 6.65093L1.54182 5.98186C1.55095 5.87452 1.56007 5.77085 1.5699 5.66939C1.63063 5.0148 1.90973 4.40361 2.3581 3.9433C2.80648 3.48299 3.39541 3.20303 4.02135 3.15267L4.59754 3.10561L5.22917 3.06076L5.90432 3.01885L6.60895 2.98356C7.21286 2.95609 7.81726 2.94187 8.42174 2.94092ZM8.42174 4.41139C7.84274 4.41139 7.2469 4.42757 6.6672 4.45257L5.98082 4.48712L5.32181 4.52756L4.70281 4.57168L4.13574 4.618C3.8377 4.64015 3.55677 4.77214 3.34275 4.99056C3.12873 5.20898 2.99544 5.49974 2.96651 5.81129C2.8844 6.70019 2.8072 7.80672 2.8072 8.82282C2.8072 9.83892 2.8844 10.9455 2.96651 11.8344C3.02617 12.4755 3.51183 12.974 4.13574 13.0276L4.70281 13.0732L5.32181 13.1173L5.98082 13.1585L6.6672 13.1931C7.2469 13.2181 7.84274 13.2342 8.42174 13.2342C9.00074 13.2342 9.59659 13.2181 10.1763 13.1931L10.8627 13.1585L11.5217 13.1181L12.1407 13.074L12.7077 13.0276C13.0058 13.0055 13.2867 12.8735 13.5007 12.6551C13.7148 12.4367 13.848 12.1459 13.877 11.8344C13.9591 10.9455 14.0363 9.83892 14.0363 8.82282C14.0363 7.80672 13.9591 6.70019 13.877 5.81129C13.848 5.49974 13.7148 5.20898 13.5007 4.99056C13.2867 4.77214 13.0058 4.64015 12.7077 4.618L12.1407 4.57241L11.5217 4.5283L10.8627 4.48712L10.1763 4.45257C9.59177 4.42622 9.0068 4.41249 8.42174 4.41139ZM7.01811 7.03987C7.01806 6.96801 7.03477 6.89723 7.06679 6.83367C7.09881 6.77012 7.14516 6.71573 7.20181 6.67522C7.25847 6.63471 7.32371 6.60931 7.39187 6.60123C7.46003 6.59315 7.52904 6.60264 7.5929 6.62887L7.64974 6.65828L10.5974 8.4405C10.6561 8.47598 10.7057 8.52577 10.7421 8.58566C10.7785 8.64554 10.8006 8.71375 10.8064 8.78448C10.8123 8.8552 10.8018 8.92637 10.7758 8.99193C10.7498 9.05748 10.709 9.11549 10.657 9.16103L10.5974 9.20514L7.64974 10.9881C7.59034 11.0241 7.52344 11.0444 7.45484 11.0472C7.38625 11.0499 7.31806 11.0351 7.2562 11.0039C7.19435 10.9727 7.1407 10.9262 7.09994 10.8683C7.05917 10.8105 7.03253 10.7431 7.02232 10.6719L7.01811 10.6058V7.03987Z" fill="white"/>
</g>
<defs>
<clipPath id="clip0_262_747">
<rect width="16.8436" height="17.6457" fill="white"/>
</clipPath>
</defs>
</svg>
