<svg width="20" height="20" viewBox="0 0 20 20" fill="none" xmlns="http://www.w3.org/2000/svg">
<g clip-path="url(#clip0_65_300)">
<path fill-rule="evenodd" clip-rule="evenodd" d="M3.33341 10.0001C3.33353 8.71712 3.70384 7.46145 4.3999 6.38373C5.09597 5.30602 6.08822 4.45203 7.25759 3.92426C8.42696 3.39648 9.72378 3.21734 10.9924 3.40831C12.2611 3.59928 13.4477 4.15227 14.4099 5.00091C15.3721 5.84955 16.0689 6.9578 16.4169 8.19267C16.7648 9.42755 16.7491 10.7366 16.3715 11.9627C15.9939 13.1889 15.2706 14.28 14.2882 15.1052C13.3059 15.9305 12.1063 16.4547 10.8334 16.6151V11.6667H12.5001C12.7211 11.6667 12.9331 11.5789 13.0893 11.4227C13.2456 11.2664 13.3334 11.0544 13.3334 10.8334C13.3334 10.6124 13.2456 10.4004 13.0893 10.2442C12.9331 10.0879 12.7211 10.0001 12.5001 10.0001H10.8334V8.33341C10.8334 8.1124 10.9212 7.90044 11.0775 7.74416C11.2338 7.58788 11.4457 7.50008 11.6667 7.50008H12.0834C12.3044 7.50008 12.5164 7.41228 12.6727 7.256C12.829 7.09972 12.9167 6.88776 12.9167 6.66675C12.9167 6.44573 12.829 6.23377 12.6727 6.07749C12.5164 5.92121 12.3044 5.83341 12.0834 5.83341H11.6667C11.0037 5.83341 10.3678 6.09681 9.89898 6.56565C9.43014 7.03449 9.16675 7.67037 9.16675 8.33341V10.0001H7.50008C7.27907 10.0001 7.06711 10.0879 6.91083 10.2442C6.75455 10.4004 6.66675 10.6124 6.66675 10.8334C6.66675 11.0544 6.75455 11.2664 6.91083 11.4227C7.06711 11.5789 7.27907 11.6667 7.50008 11.6667H9.16675V16.6151C7.55567 16.4119 6.0741 15.6278 5.00008 14.4099C3.92607 13.1919 3.33344 11.6239 3.33341 10.0001ZM10.0001 18.3334C14.6026 18.3334 18.3334 14.6026 18.3334 10.0001C18.3334 5.39758 14.6026 1.66675 10.0001 1.66675C5.39758 1.66675 1.66675 5.39758 1.66675 10.0001C1.66675 14.6026 5.39758 18.3334 10.0001 18.3334Z" fill="white"/>
</g>
<defs>
<clipPath id="clip0_65_300">
<rect width="20" height="20" fill="white"/>
</clipPath>
</defs>
</svg>
