<svg width="19" height="18" viewBox="0 0 19 18" fill="none" xmlns="http://www.w3.org/2000/svg">
<g clip-path="url(#clip0_2006_58)">
<path fill-rule="evenodd" clip-rule="evenodd" d="M3.59499 8.82284C3.59509 7.6909 3.92181 6.58304 4.53594 5.63219C5.15006 4.68133 6.02551 3.92788 7.05723 3.46223C8.08895 2.99658 9.23312 2.83852 10.3524 3.00701C11.4718 3.17551 12.5187 3.6634 13.3676 4.41214C14.2165 5.16088 14.8314 6.13868 15.1384 7.22819C15.4453 8.3177 15.4314 9.47265 15.0983 10.5545C14.7652 11.6363 14.127 12.599 13.2603 13.327C12.3936 14.0551 11.3352 14.5177 10.2121 14.6592V10.2933H11.6826C11.8776 10.2933 12.0646 10.2159 12.2025 10.078C12.3404 9.94008 12.4178 9.75307 12.4178 9.55808C12.4178 9.36308 12.3404 9.17607 12.2025 9.03818C12.0646 8.9003 11.8776 8.82284 11.6826 8.82284H10.2121V7.35236C10.2121 7.15736 10.2896 6.97035 10.4275 6.83247C10.5654 6.69459 10.7524 6.61712 10.9474 6.61712H11.315C11.51 6.61712 11.697 6.53966 11.8349 6.40178C11.9728 6.26389 12.0502 6.07688 12.0502 5.88189C12.0502 5.68689 11.9728 5.49988 11.8349 5.36199C11.697 5.22411 11.51 5.14665 11.315 5.14665H10.9474C10.3624 5.14665 9.80134 5.37904 9.38769 5.79269C8.97404 6.20634 8.74165 6.76737 8.74165 7.35236V8.82284H7.27118C7.07618 8.82284 6.88917 8.9003 6.75129 9.03818C6.6134 9.17607 6.53594 9.36308 6.53594 9.55808C6.53594 9.75307 6.6134 9.94008 6.75129 10.078C6.88917 10.2159 7.07618 10.2933 7.27118 10.2933H8.74165V14.6592C7.32022 14.4799 6.01305 13.7881 5.06547 12.7135C4.11788 11.639 3.59501 10.2555 3.59499 8.82284ZM9.47689 16.1752C13.5376 16.1752 16.8293 12.8836 16.8293 8.82284C16.8293 4.76212 13.5376 1.47046 9.47689 1.47046C5.41617 1.47046 2.12451 4.76212 2.12451 8.82284C2.12451 12.8836 5.41617 16.1752 9.47689 16.1752Z" fill="white"/>
</g>
<defs>
<clipPath id="clip0_2006_58">
<rect width="17.6457" height="17.6457" fill="white" transform="translate(0.654053)"/>
</clipPath>
</defs>
</svg>
