<svg width="21" height="20" viewBox="0 0 21 20" fill="none" xmlns="http://www.w3.org/2000/svg">
<path d="M13.1641 4.45162C12.5544 4.45152 11.9692 4.69074 11.5342 5.1178C11.0991 5.54486 10.8492 6.12563 10.838 6.73514L10.8156 7.99841C10.8143 8.06624 10.7986 8.13302 10.7697 8.19438C10.7407 8.25573 10.6991 8.31028 10.6476 8.35444C10.5961 8.39859 10.5359 8.43136 10.4708 8.45059C10.4058 8.46982 10.3374 8.47508 10.2702 8.46602L9.01731 8.29598C7.37064 8.0714 5.79215 7.31263 4.27703 6.05097C3.79819 8.70584 4.73421 10.545 6.99046 11.9639L8.39169 12.8446C8.45831 12.8863 8.51369 12.9438 8.55297 13.0119C8.59225 13.08 8.61423 13.1568 8.617 13.2353C8.61977 13.3139 8.60324 13.392 8.56886 13.4627C8.53447 13.5334 8.48328 13.5947 8.41976 13.641L7.14285 14.5738C7.90242 14.6212 8.62349 14.5875 9.22184 14.4688C13.006 13.7132 15.5222 10.8658 15.5222 6.16887C15.5222 5.78548 14.7097 4.45162 13.1641 4.45162ZM9.23387 6.70546C9.24787 5.9323 9.48964 5.18045 9.92892 4.54404C10.3682 3.90763 10.9854 3.41495 11.7034 3.12769C12.4213 2.84042 13.2081 2.77133 13.9651 2.92908C14.7222 3.08682 15.4158 3.46438 15.9593 4.01449C16.5296 4.01048 17.0148 4.15485 18.0992 3.49715C17.8313 4.81256 17.6982 5.38364 17.1263 6.16887C17.1263 12.2983 13.359 15.2789 9.53545 16.0416C6.91506 16.5646 3.10279 15.7056 2.01196 14.565C2.5678 14.5217 4.82966 14.2787 6.13705 13.3218C5.03018 12.5919 0.628379 10.0012 3.52147 3.03676C4.87939 4.62247 6.25656 5.70206 7.65217 6.27474C8.58018 6.65573 8.80877 6.64851 9.23467 6.70626" fill="white"/>
</svg>
