<svg width="22" height="22" viewBox="0 0 22 22" fill="none" xmlns="http://www.w3.org/2000/svg">
<path d="M14.071 5.0875C13.3743 5.08739 12.7054 5.36078 12.2083 5.84886C11.7111 6.33693 11.4254 7.00067 11.4127 7.69725L11.387 9.141C11.3855 9.21852 11.3676 9.29484 11.3346 9.36497C11.3015 9.43509 11.254 9.49743 11.1951 9.54789C11.1362 9.59836 11.0674 9.63581 10.993 9.65778C10.9187 9.67976 10.8405 9.68577 10.7637 9.67542L9.33185 9.48109C7.44993 9.22442 5.64593 8.35725 3.91435 6.91534C3.3671 9.9495 4.43685 12.0514 7.01543 13.673L8.61685 14.6795C8.69299 14.7272 8.75628 14.7929 8.80117 14.8708C8.84606 14.9486 8.87119 15.0363 8.87435 15.1261C8.87752 15.2159 8.85863 15.3052 8.81933 15.386C8.78003 15.4668 8.72153 15.5368 8.64893 15.5898L7.1896 16.6558C8.05768 16.7099 8.88177 16.6714 9.5656 16.5358C13.8904 15.6723 16.766 12.4181 16.766 7.05009C16.766 6.61192 15.8374 5.0875 14.071 5.0875ZM9.57935 7.66334C9.59535 6.77972 9.87167 5.92045 10.3737 5.19312C10.8757 4.4658 11.5812 3.90273 12.4017 3.57442C13.2222 3.24612 14.1214 3.16716 14.9865 3.34744C15.8517 3.52772 16.6445 3.95922 17.2656 4.58792C17.9173 4.58334 18.4719 4.74834 19.7113 3.99667C19.4051 5.5 19.2529 6.15267 18.5994 7.05009C18.5994 14.0553 14.2938 17.4616 9.92402 18.3333C6.92927 18.931 2.57235 17.9493 1.32568 16.6458C1.96093 16.5963 4.54593 16.3185 6.0401 15.2249C4.7751 14.3908 -0.255566 11.4299 3.05085 3.4705C4.60277 5.28275 6.17668 6.51659 7.77168 7.17109C8.83227 7.6065 9.09352 7.59825 9.58027 7.66425" fill="white"/>
</svg>
